<svg width="75" height="48" viewBox="0 0 95 68" fill="none" xmlns="http://www.w3.org/2000/svg">
<g filter="url(#filter0_d_505_1420)">
<path d="M71.3313 23.4227L60.1888 14.4603C56.6915 11.6472 51.9256 15.8419 54.2718 19.6681L56.2934 22.9649C56.6793 23.5942 56.8835 24.3179 56.8835 25.0559V38.2113C56.8835 39.9273 55.789 41.4521 54.1632 42.0011L42.0827 46.0802C37.8987 47.493 38.7534 53.6461 43.164 53.8651L53.3762 54.3721C53.7562 54.3909 54.1314 54.4639 54.4907 54.5887L66.7933 58.8633C70.5332 60.1628 73.5677 55.6557 70.9568 52.6793C69.949 51.5304 69.715 49.8946 70.3603 48.5093L74.7828 39.0137C75.8043 36.8206 78.7568 36.4286 80.3152 38.2792C81.997 40.2764 85.2211 39.6309 86.0045 37.1402L90.1163 24.0668C91.1835 20.6735 87.6224 17.6796 84.4629 19.3138L75.676 23.8587C74.2692 24.5864 72.5655 24.4154 71.3313 23.4227Z" fill="url(#paint0_linear_505_1420)"/>
</g>
<g filter="url(#filter1_d_505_1420)">
<path d="M21.2008 11.2945L22.3209 25.1091C22.469 26.9358 21.3568 28.6295 19.6216 29.2194L14.788 30.8629C10.8687 32.1954 11.307 37.8745 15.3844 38.5898L16.9338 38.8616C20.3374 39.4587 21.4334 43.7998 18.7212 45.941L16.5318 47.6695C13.2838 50.2337 15.5911 55.4386 19.6723 54.7538L34.9082 52.1975C36.6876 51.8989 38.0469 50.446 38.2264 48.6506L39.2599 38.3164C39.4088 36.8267 40.3772 35.545 41.7694 34.9945L51.7255 31.0584C54.7436 29.8652 55.1592 25.7637 52.4417 23.9893L27.3746 7.62196C24.5901 5.80387 20.9321 7.97992 21.2008 11.2945Z" fill="url(#paint1_linear_505_1420)"/>
</g>
<rect x="3.61165" y="5.86893" width="49.2087" height="9.48058" fill="#D9D9D9"/>
<rect x="3.61165" y="5.86893" width="9.93204" height="57.3349" fill="#D9D9D9"/>
<rect x="23.4757" y="5.86893" width="9.48058" height="40.6311" fill="#D9D9D9"/>
<rect x="42.8883" y="5.86893" width="9.93204" height="57.3349" fill="#D9D9D9"/>
<rect x="57.7864" y="5.86893" width="35.2136" height="9.48058" fill="#D9D9D9"/>
<path d="M74.0795 9.79974L73.6239 9.44203C72.1296 8.26889 72.9592 5.86893 74.8589 5.86893H93V15.3495H90.1353C84.3129 15.3495 78.659 13.3952 74.0795 9.79974Z" stroke="url(#paint2_linear_505_1420)"/>
<rect x="57.7864" y="5.86893" width="9.93204" height="24.3786" fill="#D9D9D9"/>
<rect x="57.7864" y="30.2476" width="28.4417" height="7.67476" fill="#D9D9D9"/>
<rect x="78.5534" y="30.2476" width="9.02913" height="25.2816" fill="#D9D9D9"/>
<rect x="57.7864" y="54.1748" width="29.7961" height="9.02913" fill="#D9D9D9"/>
<path d="M32.7306 24.8301L23.7015 30.9248V39.5024L32.7306 34.3107V24.8301Z" stroke="url(#paint3_linear_505_1420)"/>
<path d="M73.5874 54.4005L60.4951 62.7524H66.7986C70.0794 62.7524 73.1707 61.2151 75.1504 58.599L75.4672 58.1804C76.6423 56.6277 75.5347 54.4005 73.5874 54.4005Z" stroke="url(#paint4_linear_505_1420)"/>
<defs>
<filter id="filter0_d_505_1420" x="35.3598" y="13.5416" width="58.9496" height="53.5514" filterUnits="userSpaceOnUse" color-interpolation-filters="sRGB">
<feFlood flood-opacity="0" result="BackgroundImageFix"/>
<feColorMatrix in="SourceAlpha" type="matrix" values="0 0 0 0 0 0 0 0 0 0 0 0 0 0 0 0 0 0 127 0" result="hardAlpha"/>
<feOffset dy="4"/>
<feGaussianBlur stdDeviation="2"/>
<feComposite in2="hardAlpha" operator="out"/>
<feColorMatrix type="matrix" values="0 0 0 0 0 0 0 0 0 0 0 0 0 0 0 0 0 0 0.25 0"/>
<feBlend mode="normal" in2="BackgroundImageFix" result="effect1_dropShadow_505_1420"/>
<feBlend mode="normal" in="SourceGraphic" in2="effect1_dropShadow_505_1420" result="shape"/>
</filter>
<filter id="filter1_d_505_1420" x="8.07491" y="6.96267" width="50.1804" height="55.8527" filterUnits="userSpaceOnUse" color-interpolation-filters="sRGB">
<feFlood flood-opacity="0" result="BackgroundImageFix"/>
<feColorMatrix in="SourceAlpha" type="matrix" values="0 0 0 0 0 0 0 0 0 0 0 0 0 0 0 0 0 0 127 0" result="hardAlpha"/>
<feOffset dy="4"/>
<feGaussianBlur stdDeviation="2"/>
<feComposite in2="hardAlpha" operator="out"/>
<feColorMatrix type="matrix" values="0 0 0 0 0 0 0 0 0 0 0 0 0 0 0 0 0 0 0.25 0"/>
<feBlend mode="normal" in2="BackgroundImageFix" result="effect1_dropShadow_505_1420"/>
<feBlend mode="normal" in="SourceGraphic" in2="effect1_dropShadow_505_1420" result="shape"/>
</filter>
<linearGradient id="paint0_linear_505_1420" x1="44.2427" y1="-11.9636" x2="44.2427" y2="66.8156" gradientUnits="userSpaceOnUse">
<stop stop-color="#00FF1A"/>
<stop offset="0.518" stop-color="#CBFBAE"/>
<stop offset="1" stop-color="#FF0E0E"/>
</linearGradient>
<linearGradient id="paint1_linear_505_1420" x1="49.4345" y1="3.1602" x2="49.4345" y2="81.9393" gradientUnits="userSpaceOnUse">
<stop offset="0.025" stop-color="#0057FF"/>
<stop offset="0.503" stop-color="#B9D7B0"/>
<stop offset="1" stop-color="#096CFF"/>
</linearGradient>
<linearGradient id="paint2_linear_505_1420" x1="81.0364" y1="5.86893" x2="81.0364" y2="15.3495" gradientUnits="userSpaceOnUse">
<stop stop-color="#11FDEF"/>
<stop offset="1" stop-color="#FF0000"/>
</linearGradient>
<linearGradient id="paint3_linear_505_1420" x1="28.216" y1="24.8301" x2="28.216" y2="39.5024" gradientUnits="userSpaceOnUse">
<stop stop-color="#11FDEF"/>
<stop offset="1" stop-color="#FF0000"/>
</linearGradient>
<linearGradient id="paint4_linear_505_1420" x1="69.4114" y1="54.4005" x2="69.4114" y2="62.7524" gradientUnits="userSpaceOnUse">
<stop stop-color="#11FDEF"/>
<stop offset="1" stop-color="#61FF00"/>
</linearGradient>
</defs>
</svg>
